<?xml version="1.0" encoding="utf-8"?>
<!-- Generator: Adobe Illustrator 19.0.0, SVG Export Plug-In . SVG Version: 6.00 Build 0)  -->
<svg version="1.1" id="Layer_1" xmlns="http://www.w3.org/2000/svg" xmlns:xlink="http://www.w3.org/1999/xlink" x="0px" y="0px"
	 viewBox="0 0 99 15" style="enable-background:new 0 0 99 15;" xml:space="preserve">
<style type="text/css">
	.Drop_x0020_Shadow{fill:none;}
	.Round_x0020_Corners_x0020_2_x0020_pt{fill:#FFFFFF;stroke:#000000;stroke-miterlimit:10;}
	.Live_x0020_Reflect_x0020_X{fill:none;}
	.Bevel_x0020_Soft{fill:url(#SVGID_1_);}
	.Dusk{fill:#FFFFFF;}
	.Foliage_GS{fill:#FFDD00;}
	.Pompadour_GS{fill-rule:evenodd;clip-rule:evenodd;fill:#44ADE2;}
	.st0{fill:none;}
	.st1{stroke:#000000;stroke-width:0.75;stroke-miterlimit:10;}
</style>
<linearGradient id="SVGID_1_" gradientUnits="userSpaceOnUse" x1="-890.5" y1="-411" x2="-889.7929" y2="-410.2929">
	<stop  offset="0" style="stop-color:#DEDFE3"/>
	<stop  offset="0.1738" style="stop-color:#D8D9DD"/>
	<stop  offset="0.352" style="stop-color:#C9CACD"/>
	<stop  offset="0.5323" style="stop-color:#B4B5B8"/>
	<stop  offset="0.7139" style="stop-color:#989A9C"/>
	<stop  offset="0.8949" style="stop-color:#797C7E"/>
	<stop  offset="1" style="stop-color:#656B6C"/>
</linearGradient>
<rect x="-49.6" y="-11" class="st0" width="198.9" height="38.3"/>
<path class="st1" d="M8,11.6c0,0.3-0.2,0.6-0.6,0.8c-0.4,0.2-0.9,0.3-1.5,0.3H5.1c-0.6,0-1.1-0.1-1.5-0.3c-0.4-0.2-0.6-0.5-0.6-0.8
	V4.7c0-0.3,0.2-0.6,0.6-0.8c0.4-0.2,0.9-0.3,1.5-0.3h0.8c0.6,0,1.1,0.1,1.5,0.3C7.8,4.1,8,4.4,8,4.7v1.5H6.8V4.7
	c0-0.1-0.1-0.3-0.3-0.4C6.4,4.2,6.2,4.2,5.9,4.2H5.1c-0.3,0-0.5,0.1-0.6,0.2C4.3,4.4,4.2,4.6,4.2,4.7v6.8c0,0.1,0.1,0.3,0.3,0.4
	c0.2,0.1,0.4,0.2,0.6,0.2h0.8c0.3,0,0.5-0.1,0.6-0.2c0.2-0.1,0.3-0.2,0.3-0.4V8.5H6.4l0-0.7H8V11.6z"/>
<path class="st1" d="M35.3,11.6c0,0.3-0.2,0.6-0.6,0.8c-0.4,0.2-0.9,0.3-1.5,0.3h-0.8c-0.6,0-1.1-0.1-1.5-0.3
	c-0.4-0.2-0.6-0.5-0.6-0.8V4.7c0-0.3,0.2-0.6,0.6-0.8c0.4-0.2,0.9-0.3,1.5-0.3h0.8c0.6,0,1.1,0.1,1.5,0.3c0.4,0.2,0.6,0.5,0.6,0.8
	v1.5h-1.1V4.7c0-0.1-0.1-0.3-0.3-0.4c-0.2-0.1-0.4-0.2-0.6-0.2h-0.8c-0.3,0-0.5,0.1-0.6,0.2c-0.2,0.1-0.3,0.2-0.3,0.4v6.8
	c0,0.1,0.1,0.3,0.3,0.4c0.2,0.1,0.4,0.2,0.6,0.2h0.8c0.3,0,0.5-0.1,0.6-0.2c0.2-0.1,0.3-0.2,0.3-0.4V8.5h-0.5l0-0.7h1.6V11.6z"/>
<path class="st1" d="M11.3,12.1h2.8v0.7h-3.9V3.5h3.9v0.7h-2.8v3.6h2.8v0.7h-2.8V12.1z"/>
<path class="st1" d="M18.3,12.7c-0.6,0-1.1-0.1-1.5-0.3c-0.4-0.2-0.6-0.5-0.6-0.8V4.7c0-0.3,0.2-0.6,0.6-0.8
	c0.4-0.2,0.9-0.3,1.5-0.3h0.8c0.6,0,1.1,0.1,1.5,0.3c0.4,0.2,0.6,0.5,0.6,0.8v6.8c0,0.3-0.2,0.6-0.6,0.8c-0.4,0.2-0.9,0.3-1.5,0.3
	H18.3z M18.3,4.2c-0.3,0-0.5,0.1-0.6,0.2c-0.2,0.1-0.3,0.2-0.3,0.4v6.8c0,0.1,0.1,0.3,0.3,0.4c0.2,0.1,0.4,0.2,0.6,0.2h0.8
	c0.3,0,0.5-0.1,0.6-0.2c0.2-0.1,0.3-0.2,0.3-0.4V4.7c0-0.1-0.1-0.3-0.3-0.4c-0.2-0.1-0.4-0.2-0.6-0.2H18.3z"/>
<path class="st1" d="M24.4,8.5v4.2h-1.1V3.5h2.8c0.6,0,1.1,0.1,1.5,0.3c0.4,0.2,0.6,0.5,0.6,0.8v2.6c0,0.3-0.2,0.6-0.6,0.8
	c0,0,0,0,0,0c0,0,0,0,0,0C28,8.4,28.2,8.7,28.2,9v3.7h-1.1V9c0-0.1-0.1-0.3-0.3-0.4c-0.2-0.1-0.4-0.2-0.6-0.2H24.4z M24.4,4.2v3.7
	h1.7c0.3,0,0.5-0.1,0.6-0.2c0.2-0.1,0.3-0.2,0.3-0.4V4.7c0-0.1-0.1-0.3-0.3-0.4c-0.2-0.1-0.4-0.2-0.6-0.2H24.4z"/>
<path class="st1" d="M38.6,12.1h2.8v0.7h-3.9V3.5h3.9v0.7h-2.8v3.6h2.8v0.7h-2.8V12.1z"/>
<path class="st1" d="M43.2,4.7c0-0.3,0.2-0.6,0.6-0.8c0.4-0.2,0.9-0.3,1.5-0.3h0.8c0.6,0,1.1,0.1,1.5,0.3c0.4,0.2,0.6,0.5,0.6,0.8
	v1.5H47V4.7c0-0.1-0.1-0.3-0.3-0.4c-0.2-0.1-0.4-0.2-0.6-0.2h-0.8c-0.3,0-0.5,0.1-0.6,0.2c-0.2,0.1-0.3,0.2-0.3,0.4v2l3.8,2.6v2.3
	c0,0.3-0.2,0.6-0.6,0.8c-0.4,0.2-0.9,0.3-1.5,0.3h-0.8c-0.6,0-1.1-0.1-1.5-0.3c-0.4-0.2-0.6-0.5-0.6-0.8v-1.5h1.1v1.5
	c0,0.1,0.1,0.3,0.3,0.4c0.2,0.1,0.4,0.2,0.6,0.2h0.8c0.3,0,0.5-0.1,0.6-0.2c0.2-0.1,0.3-0.2,0.3-0.4V9.5l-3.8-2.6V4.7z"/>
<path class="st1" d="M53,3.6l-1.4,9.2l-1.1-0.1l1.4-9.2L53,3.6z"/>
<path class="st1" d="M56.5,8.5v4.2h-1.1V3.5h2.8c0.6,0,1.1,0.1,1.5,0.3c0.4,0.2,0.6,0.5,0.6,0.8v2.6c0,0.3-0.2,0.6-0.6,0.8
	c0,0,0,0,0,0c0,0,0,0,0,0c0.4,0.2,0.6,0.5,0.6,0.8v3.7h-1.1V9c0-0.1-0.1-0.3-0.3-0.4c-0.2-0.1-0.4-0.2-0.6-0.2H56.5z M56.5,4.2v3.7
	h1.7c0.3,0,0.5-0.1,0.6-0.2c0.2-0.1,0.3-0.2,0.3-0.4V4.7c0-0.1-0.1-0.3-0.3-0.4c-0.2-0.1-0.4-0.2-0.6-0.2H56.5z"/>
<path class="st1" d="M65.2,3.6l-1.4,9.2l-1.1-0.1L64,3.5L65.2,3.6z"/>
<path class="st1" d="M68.6,6.4v6.4h-1.1V3.5h1.2l2.6,6.4V3.5h1.1v9.2h-1.2L68.6,6.4z"/>
<path class="st1" d="M77.3,3.6l-1.4,9.2l-1.1-0.1l1.4-9.2L77.3,3.6z"/>
<path class="st1" d="M79.6,12.7V3.5h2.8c0.6,0,1.1,0.1,1.5,0.3c0.4,0.2,0.6,0.5,0.6,0.8v6.8c0,0.3-0.2,0.6-0.6,0.8
	c-0.4,0.2-0.9,0.3-1.5,0.3H79.6z M80.8,4.2v7.9h1.7c0.3,0,0.5-0.1,0.6-0.2c0.2-0.1,0.3-0.2,0.3-0.4V4.7c0-0.1-0.1-0.3-0.3-0.4
	c-0.2-0.1-0.4-0.2-0.6-0.2H80.8z"/>
<path class="st1" d="M89.4,3.6L88,12.7l-1.1-0.1l1.4-9.2L89.4,3.6z"/>
<path class="st1" d="M91.8,4.7c0-0.3,0.2-0.6,0.6-0.8c0.4-0.2,0.9-0.3,1.5-0.3h0.8c0.6,0,1.1,0.1,1.5,0.3c0.4,0.2,0.6,0.5,0.6,0.8
	v1.5h-1.1V4.7c0-0.1-0.1-0.3-0.3-0.4c-0.2-0.1-0.4-0.2-0.6-0.2h-0.8c-0.3,0-0.5,0.1-0.6,0.2c-0.2,0.1-0.3,0.2-0.3,0.4v2l3.8,2.6v2.3
	c0,0.3-0.2,0.6-0.6,0.8c-0.4,0.2-0.9,0.3-1.5,0.3h-0.8c-0.6,0-1.1-0.1-1.5-0.3c-0.4-0.2-0.6-0.5-0.6-0.8v-1.5h1.1v1.5
	c0,0.1,0.1,0.3,0.3,0.4c0.2,0.1,0.4,0.2,0.6,0.2h0.8c0.3,0,0.5-0.1,0.6-0.2c0.2-0.1,0.3-0.2,0.3-0.4V9.5l-3.8-2.6V4.7z"/>
<g>
</g>
<g>
</g>
<g>
</g>
<g>
</g>
<g>
</g>
<g>
</g>
</svg>
